<?xml version="1.0" encoding="UTF-8"?>
<svg id="Layer_1" data-name="Layer 1" xmlns="http://www.w3.org/2000/svg" viewBox="0 0 1500 1417.86">
  <defs>
    <style>
      .cls-1 {
        font-family: Graphik-Medium, Graphik;
        font-size: 66.62px;
        font-weight: 500;
      }

      .cls-2 {
        stroke-width: 12px;
      }

      .cls-2, .cls-3 {
        fill: none;
        stroke: #c9c9c9;
        stroke-miterlimit: 10;
      }

      .cls-4 {
        fill: #b2bcc5;
      }

      .cls-5 {
        letter-spacing: -.05em;
      }

      .cls-6 {
        fill: #b6e2e2;
      }

      .cls-7 {
        letter-spacing: -.03em;
      }

      .cls-8 {
        font-family: Bison-Bold, Bison;
        font-size: 100px;
        font-weight: 700;
      }

      .cls-3 {
        stroke-width: 36px;
      }

      .cls-9 {
        fill: #d9d9d9;
      }
    </style>
  </defs>
  <g>
    <path class="cls-9" d="M325.71,503.54s-88.29-95.57-183.86-111.43c-4.02-.43-49.03-13.52-20.14,35.46,0,0,45.86,91.82,24,179.25,0,0-36.43,97.29,32.79,160.93,27.13,24.95,87.91,47.25,87.91,47.25-44.79,19.93-57.27,89.68-57.27,89.68-14.57,70.29,33.96,127.82,33.96,127.82,0,0,31.82,41.25,26.68,86.25-5.14,45,41.79,23.46,41.79,23.46,65.25-23.79,122.36-109.71,122.36-109.71l-82.5-84.11-25.71-444.86Z"/>
    <path class="cls-9" d="M1174.29,503.54s88.29-95.57,183.86-111.43c4.02-.43,49.03-13.52,20.14,35.46,0,0-45.86,91.82-24,179.25,0,0,36.43,97.29-32.79,160.93-27.13,24.95-87.91,47.25-87.91,47.25,44.79,19.93,57.27,89.68,57.27,89.68,14.57,70.29-33.96,127.82-33.96,127.82,0,0-31.82,41.25-26.68,86.25,5.14,45-41.79,23.46-41.79,23.46-65.25-23.79-122.36-109.71-122.36-109.71l82.5-84.11,25.71-444.86Z"/>
  </g>
  <path class="cls-3" d="M338.29,549.96v317.93c0,54.22,28.48,104.45,75.01,132.3l257.53,154.11c48.75,29.17,109.59,29.17,158.34,0l257.53-154.11c46.53-27.84,75.01-78.08,75.01-132.3v-317.93c0-54.22-28.48-104.45-75.01-132.3l-257.53-154.11c-48.75-29.17-109.59-29.17-158.34,0l-257.53,154.11c-46.53,27.84-75.01,78.08-75.01,132.3Z"/>
  <rect class="cls-2" x="409.6" y="719.87" width="680.79" height="208.29"/>
  <text class="cls-8" transform="translate(518.7 857.06)"><tspan x="0" y="0">Vision Builder</tspan></text>
  <text class="cls-1" transform="translate(631.79 1026.3)"><tspan x="0" y="0">$</tspan><tspan class="cls-7" x="42.3" y="0">5</tspan><tspan class="cls-5" x="80.21" y="0">,</tspan><tspan x="96.33" y="0">000</tspan></text>
  <g>
    <path class="cls-6" d="M627.78,550.46l-63.72-86.5h-17.06v87.88h14.62v-12.94h40.62l9.53,12.94h16.76c-.18-.48-.42-.94-.75-1.38M561.62,527.03v-43.27l31.87,43.27h-31.87Z"/>
    <path class="cls-4" d="M683.35,551.84h-14.62l-.07-73.45-40.29,47.22-.4.34c-1.72,1.45-4.04,2.25-6.47,2.25-.31,0-.63,0-.94-.04-2.77-.23-5.2-1.46-6.69-3.37l-.11-.14-42.96-59.17c-.35-.48-.61-.99-.78-1.51h16.66l35.17,48.45,41.34-48.45h20.06l.09,87.89Z"/>
    <path d="M531.51,463.95h-14.56v14.35h14.56v-14.35Z"/>
    <path d="M531.51,485.12h-14.56v66.75h14.56v-66.75Z"/>
    <path d="M531.17,581.7v22.67h16.15v14.17h-16.15v39.13h-14.22v-90.13h37.48v14.17h-23.26v-.02Z"/>
    <path d="M581.69,657.68c-6.07,0-10.96-1.72-14.64-5.15-4.22-4.03-6.32-9.53-6.32-16.49v-46.84c0-6.96,2.1-12.46,6.32-16.49,3.71-3.43,8.59-5.15,14.64-5.15s10.96,1.72,14.64,5.15c4.22,4.03,6.32,9.53,6.32,16.49v46.84c0,6.98-2.1,12.46-6.32,16.49-3.71,3.43-8.59,5.15-14.64,5.15ZM581.69,581.39c-2.36,0-4.09.51-5.17,1.52-1.26,1.17-1.9,3.28-1.9,6.29v46.84c0,3.02.64,5.13,1.9,6.29,1.1,1.01,2.83,1.52,5.17,1.52s4.17-.51,5.17-1.52c1.26-1.08,1.9-3.19,1.9-6.29v-46.84c0-3.1-.64-5.19-1.9-6.29-1.02-1.01-2.74-1.52-5.17-1.52Z"/>
    <path d="M633.11,657.68c-6.14,0-11.07-1.74-14.82-5.22-4.26-4.07-6.38-9.64-6.38-16.68v-68.23h14.05v68.23c0,3.15.6,5.26,1.79,6.36,1.1,1.01,2.89,1.52,5.37,1.52s4.13-.51,5.23-1.52c1.28-1.19,1.92-3.3,1.92-6.36v-68.23h14.05v68.23c0,6.87-2.12,12.44-6.38,16.68-3.91,3.48-8.86,5.22-14.82,5.22Z"/>
    <path d="M707.92,657.68h-8.26l-21.71-45.72v45.72h-14.22v-90.13h8.26l21.71,45.58v-45.58h14.22v90.13Z"/>
    <path d="M739.2,657.68h-21.45v-90.13h21.45c6.12,0,11.11,1.81,15,5.41,4.31,3.94,6.47,9.53,6.47,16.75v46.35c0,3.52-.51,6.65-1.55,9.4-1.21,2.93-2.89,5.33-5.04,7.22-3.71,3.35-8.66,5.02-14.87,5.02l-.02-.02ZM731.97,643.5h7.25c2.58,0,4.4-.46,5.43-1.41,1.21-1.03,1.81-3.04,1.81-6.05v-46.35c0-2.99-.64-5.15-1.94-6.45-1.13-1.03-2.89-1.54-5.3-1.54h-7.25v61.81Z"/>
    <path d="M799.28,643.37h-16.28l-2.58,14.28h-14.47l18.09-90.13h14.22l18.09,90.13h-14.47l-2.58-14.28h-.02ZM796.82,629.22l-5.68-32.31-5.68,32.31h11.38-.02Z"/>
    <path d="M857.57,581.7h-14.47v75.98h-14.22v-75.98h-14.47v-14.18h43.16v14.18Z"/>
    <path d="M878.11,657.68h-14.22v-90.13h14.22v90.13Z"/>
    <path d="M908.72,657.68c-6.07,0-10.95-1.72-14.65-5.15-4.22-4.03-6.32-9.53-6.32-16.49v-46.84c0-6.96,2.1-12.46,6.32-16.49,3.71-3.43,8.59-5.15,14.65-5.15s10.95,1.72,14.65,5.15c4.22,4.03,6.32,9.53,6.32,16.49v46.84c0,6.98-2.1,12.46-6.32,16.49-3.71,3.43-8.59,5.15-14.65,5.15ZM908.72,581.39c-2.36,0-4.09.51-5.17,1.52-1.26,1.17-1.9,3.28-1.9,6.29v46.84c0,3.02.64,5.13,1.9,6.29,1.1,1.01,2.83,1.52,5.17,1.52s4.18-.51,5.17-1.52c1.26-1.08,1.9-3.19,1.9-6.29v-46.84c0-3.1-.64-5.19-1.9-6.29-1.02-1.01-2.74-1.52-5.17-1.52Z"/>
    <path d="M983.03,657.68h-8.26l-21.71-45.72v45.72h-14.2v-90.13h8.26l21.71,45.58v-45.58h14.22v90.13h-.02Z"/>
    <path d="M734.02,503.23h22.02v27.41c0,13.83-8.01,21.73-23.46,21.73s-23.46-7.9-23.46-21.73v-44.94c0-13.83,8.01-21.73,23.46-21.73s23.46,7.9,23.46,21.73v8.4h-14.87v-9.26c0-6.17-3.15-8.52-8.15-8.52s-8.15,2.35-8.15,8.52v46.67c0,6.17,3.15,8.39,8.15,8.39s8.15-2.22,8.15-8.39v-15.93h-7.15v-12.35Z"/>
    <path d="M781.93,464.95h-15.73v86.43h15.73v-86.43Z"/>
    <path d="M809.12,503.36h20.3v12.35h-20.3v35.68h-15.74v-86.44h35.63v12.35h-19.89v26.05Z"/>
    <path d="M838.01,464.95h42.64v12.35h-13.45v74.09h-15.74v-74.09h-13.45v-12.35Z"/>
    <path d="M903.25,501.38h21.6v12.34h-21.6v25.32h21.17v12.35h-36.91v-86.44h36.91v12.35h-21.17v24.08Z"/>
    <path d="M934.15,464.95h24.89c15.73,0,23.46,7.54,23.46,21.37v43.71c0,13.83-7.72,21.37-23.46,21.37h-24.89v-86.44ZM949.89,477.31v61.73h8.86c5.01,0,8.01-2.22,8.01-8.39v-44.95c0-6.17-3-8.4-8.01-8.4h-8.86Z"/>
  </g>
</svg>