<svg width="1500" height="1418" viewBox="0 0 1500 1418" fill="none" xmlns="http://www.w3.org/2000/svg">
<path d="M325.71 503.54C325.71 503.54 237.42 407.97 141.85 392.11C137.83 391.68 92.82 378.59 121.71 427.57C121.71 427.57 167.57 519.39 145.71 606.82C145.71 606.82 109.28 704.11 178.5 767.75C205.63 792.7 266.41 815 266.41 815C221.62 834.93 209.14 904.68 209.14 904.68C194.57 974.97 243.1 1032.5 243.1 1032.5C243.1 1032.5 274.92 1073.75 269.78 1118.75C264.64 1163.75 311.57 1142.21 311.57 1142.21C376.82 1118.42 433.93 1032.5 433.93 1032.5L351.43 948.39L325.72 503.53L325.71 503.54Z" fill="#CBB9F1"/>
<path d="M1174.29 503.54C1174.29 503.54 1262.58 407.97 1358.15 392.11C1362.17 391.68 1407.18 378.59 1378.29 427.57C1378.29 427.57 1332.43 519.39 1354.29 606.82C1354.29 606.82 1390.72 704.11 1321.5 767.75C1294.37 792.7 1233.59 815 1233.59 815C1278.38 834.93 1290.86 904.68 1290.86 904.68C1305.43 974.97 1256.9 1032.5 1256.9 1032.5C1256.9 1032.5 1225.08 1073.75 1230.22 1118.75C1235.36 1163.75 1188.43 1142.21 1188.43 1142.21C1123.18 1118.42 1066.07 1032.5 1066.07 1032.5L1148.57 948.39L1174.28 503.53L1174.29 503.54Z" fill="#CBB9F1"/>
<path d="M338 549.96V867.89C338 922.11 366.48 972.34 413.01 1000.19L670.54 1154.3C719.29 1183.47 780.13 1183.47 828.88 1154.3L1086.41 1000.19C1132.94 972.35 1161.42 922.11 1161.42 867.89V549.96C1161.42 495.74 1132.94 445.51 1086.41 417.66L828.88 263.55C780.13 234.38 719.29 234.38 670.54 263.55L413.01 417.66C366.48 445.5 338 495.74 338 549.96Z" stroke="#DACDF4" stroke-width="36" stroke-miterlimit="10"/>
<path d="M1090.39 719.87H409.6V928.16H1090.39V719.87Z" stroke="#CBB9F1" stroke-width="12" stroke-miterlimit="10"/>
<path d="M483.108 867.106C479.647 870.331 475.084 871.944 469.42 871.944C463.756 871.944 459.193 870.331 455.732 867.106C451.799 863.33 449.832 858.177 449.832 851.648V840.91H462.812V851.648C462.812 854.48 463.402 856.447 464.582 857.548C465.605 858.492 467.217 858.964 469.42 858.964C471.701 858.964 473.314 858.492 474.258 857.548C475.438 856.525 476.028 854.559 476.028 851.648V846.456C476.028 842.837 474.573 839.691 471.662 837.016C471.033 836.465 469.381 835.443 466.706 833.948C463.009 831.981 460.295 830.251 458.564 828.756C455.732 826.239 453.569 823.367 452.074 820.142C450.579 816.917 449.832 813.455 449.832 809.758V807.752C449.832 801.223 451.799 796.07 455.732 792.294C459.193 789.069 463.756 787.456 469.42 787.456C475.084 787.456 479.647 789.069 483.108 792.294C487.041 796.07 489.008 801.223 489.008 807.752V814.95H476.028V807.752C476.028 804.841 475.438 802.875 474.258 801.852C473.314 800.908 471.701 800.436 469.42 800.436C467.217 800.436 465.605 800.908 464.582 801.852C463.402 802.953 462.812 804.92 462.812 807.752V809.758C462.812 813.377 464.267 816.484 467.178 819.08C467.965 819.709 469.499 820.653 471.78 821.912C475.871 824.115 478.703 825.924 480.276 827.34C486.097 832.532 489.008 838.904 489.008 846.456V851.648C489.008 858.177 487.041 863.33 483.108 867.106ZM530.766 801.38H509.526V822.148H524.158V835.128H509.526V858.02H530.766V871H496.546V788.4H530.766V801.38ZM573.057 801.38H551.817V822.148H566.449V835.128H551.817V858.02H573.057V871H538.837V788.4H573.057V801.38ZM614.286 866.398C610.904 869.466 606.38 871 600.716 871H581.128V788.4H600.716C606.302 788.4 610.864 790.052 614.404 793.356C618.338 796.975 620.304 802.088 620.304 808.696V851.176C620.304 854.401 619.832 857.273 618.888 859.79C617.787 862.465 616.253 864.667 614.286 866.398ZM594.108 801.38V858.02H600.716C603.076 858.02 604.728 857.587 605.672 856.722C606.774 855.778 607.324 853.929 607.324 851.176V808.696C607.324 805.943 606.734 803.976 605.554 802.796C604.532 801.852 602.919 801.38 600.716 801.38H594.108ZM678.43 867.106C674.969 870.331 670.406 871.944 664.742 871.944C659.078 871.944 654.516 870.331 651.054 867.106C647.121 863.33 645.154 858.177 645.154 851.648V840.91H658.134V851.648C658.134 854.48 658.724 856.447 659.904 857.548C660.927 858.492 662.54 858.964 664.742 858.964C667.024 858.964 668.636 858.492 669.58 857.548C670.76 856.525 671.35 854.559 671.35 851.648V846.456C671.35 842.837 669.895 839.691 666.984 837.016C666.355 836.465 664.703 835.443 662.028 833.948C658.331 831.981 655.617 830.251 653.886 828.756C651.054 826.239 648.891 823.367 647.396 820.142C645.902 816.917 645.154 813.455 645.154 809.758V807.752C645.154 801.223 647.121 796.07 651.054 792.294C654.516 789.069 659.078 787.456 664.742 787.456C670.406 787.456 674.969 789.069 678.43 792.294C682.364 796.07 684.33 801.223 684.33 807.752V814.95H671.35V807.752C671.35 804.841 670.76 802.875 669.58 801.852C668.636 800.908 667.024 800.436 664.742 800.436C662.54 800.436 660.927 800.908 659.904 801.852C658.724 802.953 658.134 804.92 658.134 807.752V809.758C658.134 813.377 659.59 816.484 662.5 819.08C663.287 819.709 664.821 820.653 667.102 821.912C671.193 824.115 674.025 825.924 675.598 827.34C681.42 832.532 684.33 838.904 684.33 846.456V851.648C684.33 858.177 682.364 863.33 678.43 867.106ZM724.554 867.106C720.936 870.331 716.373 871.944 710.866 871.944C705.202 871.944 700.64 870.331 697.178 867.106C693.245 863.33 691.278 858.177 691.278 851.648V788.4H704.258V851.648C704.258 854.559 704.809 856.525 705.91 857.548C706.933 858.492 708.585 858.964 710.866 858.964C713.069 858.964 714.682 858.492 715.704 857.548C716.884 856.447 717.474 854.48 717.474 851.648V788.4H730.454V851.648C730.454 858.02 728.488 863.173 724.554 867.106ZM752.325 837.96V871H739.345V788.4H758.933C764.518 788.4 769.081 790.052 772.621 793.356C776.554 796.975 778.521 802.088 778.521 808.696V817.664C778.521 824.351 776.554 829.503 772.621 833.122C769.16 836.347 764.597 837.96 758.933 837.96H752.325ZM752.325 801.38V824.98H758.933C761.136 824.98 762.748 824.508 763.771 823.564C764.951 822.463 765.541 820.496 765.541 817.664V808.696C765.541 805.943 764.951 803.976 763.771 802.796C762.748 801.852 761.136 801.38 758.933 801.38H752.325ZM798.534 837.96V871H785.554V788.4H805.142C810.727 788.4 815.29 790.052 818.83 793.356C822.763 796.975 824.73 802.088 824.73 808.696V817.664C824.73 824.351 822.763 829.503 818.83 833.122C815.369 836.347 810.806 837.96 805.142 837.96H798.534ZM798.534 801.38V824.98H805.142C807.345 824.98 808.957 824.508 809.98 823.564C811.16 822.463 811.75 820.496 811.75 817.664V808.696C811.75 805.943 811.16 803.976 809.98 802.796C808.957 801.852 807.345 801.38 805.142 801.38H798.534ZM864.207 867.106C860.746 870.331 856.183 871.944 850.519 871.944C844.855 871.944 840.293 870.331 836.831 867.106C832.898 863.33 830.931 858.177 830.931 851.648V807.752C830.931 801.223 832.898 796.07 836.831 792.294C840.293 789.069 844.855 787.456 850.519 787.456C856.183 787.456 860.746 789.069 864.207 792.294C868.141 796.07 870.107 801.223 870.107 807.752V851.648C870.107 858.177 868.141 863.33 864.207 867.106ZM855.357 801.852C854.413 800.908 852.801 800.436 850.519 800.436C848.317 800.436 846.704 800.908 845.681 801.852C844.501 802.953 843.911 804.92 843.911 807.752V851.648C843.911 854.48 844.501 856.447 845.681 857.548C846.704 858.492 848.317 858.964 850.519 858.964C852.801 858.964 854.413 858.492 855.357 857.548C856.537 856.525 857.127 854.559 857.127 851.648V807.752C857.127 804.841 856.537 802.875 855.357 801.852ZM917.255 871H904.039L897.313 837.842H891.413V871H878.433V788.4H898.021C903.606 788.4 908.169 790.052 911.709 793.356C915.642 796.975 917.609 802.088 917.609 808.696V817.546C917.609 824.233 915.642 829.385 911.709 833.004C911.158 833.555 910.529 834.066 909.821 834.538L917.255 871ZM904.629 808.696C904.629 805.943 904.039 803.976 902.859 802.796C901.836 801.852 900.224 801.38 898.021 801.38H891.413V824.862H898.021C900.224 824.862 901.836 824.39 902.859 823.446C904.039 822.345 904.629 820.378 904.629 817.546V808.696ZM961.205 788.4V801.38H947.989V871H935.009V801.38H921.793V788.4H961.205ZM1001.15 801.38H979.913V822.148H994.545V835.128H979.913V858.02H1001.15V871H966.933V788.4H1001.15V801.38ZM1048.05 871H1034.83L1028.1 837.842H1022.2V871H1009.22V788.4H1028.81C1034.4 788.4 1038.96 790.052 1042.5 793.356C1046.43 796.975 1048.4 802.088 1048.4 808.696V817.546C1048.4 824.233 1046.43 829.385 1042.5 833.004C1041.95 833.555 1041.32 834.066 1040.61 834.538L1048.05 871ZM1035.42 808.696C1035.42 805.943 1034.83 803.976 1033.65 802.796C1032.63 801.852 1031.01 801.38 1028.81 801.38H1022.2V824.862H1028.81C1031.01 824.862 1032.63 824.39 1033.65 823.446C1034.83 822.345 1035.42 820.378 1035.42 817.546V808.696Z" fill="black"/>
<path d="M712.16 1065.1V1057.54C707.32 1057.18 703.7 1055.78 701.3 1053.34C698.9 1050.86 697.54 1047.66 697.22 1043.74H704.66C704.94 1046.02 705.6 1047.84 706.64 1049.2C707.72 1050.52 709.56 1051.34 712.16 1051.66V1038.16C707.56 1037.36 704.16 1036.02 701.96 1034.14C699.76 1032.26 698.66 1029.48 698.66 1025.8C698.66 1022.44 699.9 1019.64 702.38 1017.4C704.86 1015.16 708.12 1013.9 712.16 1013.62V1008.22H716.18V1013.68C720.1 1014.04 723.2 1015.24 725.48 1017.28C727.76 1019.32 729.08 1022.18 729.44 1025.86H722.36C721.68 1022.18 719.62 1020.06 716.18 1019.5V1031.8C720.94 1032.56 724.46 1033.88 726.74 1035.76C729.06 1037.64 730.22 1040.5 730.22 1044.34C730.22 1047.94 728.96 1050.98 726.44 1053.46C723.92 1055.9 720.5 1057.26 716.18 1057.54V1065.1H712.16ZM721.04 1049.5C722.24 1048.3 722.84 1046.82 722.84 1045.06C722.84 1043.3 722.36 1041.96 721.4 1041.04C720.48 1040.12 718.74 1039.38 716.18 1038.82V1051.66C718.22 1051.38 719.84 1050.66 721.04 1049.5ZM705.74 1025.14C705.74 1026.82 706.18 1028.12 707.06 1029.04C707.94 1029.92 709.64 1030.62 712.16 1031.14V1019.32C710.12 1019.56 708.54 1020.22 707.42 1021.3C706.3 1022.34 705.74 1023.62 705.74 1025.14ZM733.986 1057V1055.56L750.186 1038.46C754.546 1033.86 756.726 1029.8 756.726 1026.28C756.726 1024.24 756.166 1022.64 755.046 1021.48C753.926 1020.32 752.346 1019.74 750.306 1019.74C745.866 1019.74 743.306 1022.58 742.626 1028.26H735.306C735.586 1023.58 737.066 1019.96 739.746 1017.4C742.426 1014.8 746.026 1013.5 750.546 1013.5C754.946 1013.5 758.406 1014.66 760.926 1016.98C763.446 1019.26 764.706 1022.32 764.706 1026.16C764.706 1031 761.906 1036.12 756.306 1041.52L746.766 1050.82H765.006V1057H733.986ZM785.233 1057.6C780.393 1057.6 776.693 1056.42 774.133 1054.06C771.573 1051.7 770.173 1048.58 769.933 1044.7H777.373C777.733 1046.9 778.473 1048.58 779.593 1049.74C780.753 1050.86 782.613 1051.42 785.173 1051.42C787.613 1051.42 789.513 1050.64 790.873 1049.08C792.233 1047.52 792.913 1045.4 792.913 1042.72C792.913 1040.12 792.213 1038.06 790.813 1036.54C789.413 1035.02 787.533 1034.26 785.173 1034.26C781.373 1034.26 778.393 1035.5 776.233 1037.98H772.153L772.513 1014.1H798.553V1020.4H778.633L778.573 1032.04C780.653 1029.64 783.733 1028.44 787.813 1028.44C791.733 1028.44 794.913 1029.74 797.353 1032.34C799.793 1034.9 801.013 1038.4 801.013 1042.84C801.013 1047.32 799.553 1050.9 796.633 1053.58C793.713 1056.26 789.913 1057.6 785.233 1057.6Z" fill="black"/>
<path d="M627.78 550.46L564.06 463.96H547V551.84H561.62V538.9H602.24L611.77 551.84H628.53C628.35 551.36 628.11 550.9 627.78 550.46ZM561.62 527.03V483.76L593.49 527.03H561.62Z" fill="#B6E2E2"/>
<path d="M683.35 551.84H668.73L668.66 478.39L628.37 525.61L627.97 525.95C626.25 527.4 623.93 528.2 621.5 528.2C621.19 528.2 620.87 528.2 620.56 528.16C617.79 527.93 615.36 526.7 613.87 524.79L613.76 524.65L570.8 465.48C570.45 465 570.191 464.49 570.021 463.97H586.68L621.85 512.42L663.19 463.97H683.25L683.341 551.86L683.35 551.84Z" fill="#B2BCC5"/>
<path d="M531.51 463.95H516.95V478.3H531.51V463.95Z" fill="black"/>
<path d="M531.51 485.12H516.95V551.87H531.51V485.12Z" fill="black"/>
<path d="M531.17 581.7V604.37H547.32V618.54H531.17V657.67H516.95V567.54H554.43V581.71H531.17V581.69V581.7Z" fill="black"/>
<path d="M581.69 657.68C575.62 657.68 570.73 655.96 567.05 652.53C562.83 648.5 560.73 643 560.73 636.04V589.2C560.73 582.24 562.83 576.74 567.05 572.71C570.76 569.28 575.64 567.56 581.69 567.56C587.74 567.56 592.651 569.28 596.331 572.71C600.551 576.74 602.651 582.24 602.651 589.2V636.04C602.651 643.02 600.551 648.5 596.331 652.53C592.621 655.96 587.74 657.68 581.69 657.68ZM581.69 581.39C579.33 581.39 577.601 581.9 576.521 582.91C575.261 584.08 574.62 586.19 574.62 589.2V636.04C574.62 639.06 575.261 641.17 576.521 642.33C577.621 643.34 579.35 643.85 581.69 643.85C584.03 643.85 585.86 643.34 586.86 642.33C588.12 641.25 588.76 639.14 588.76 636.04V589.2C588.76 586.1 588.12 584.01 586.86 582.91C585.84 581.9 584.12 581.39 581.69 581.39Z" fill="black"/>
<path d="M633.11 657.68C626.97 657.68 622.04 655.94 618.29 652.46C614.03 648.39 611.91 642.82 611.91 635.78V567.55H625.96V635.78C625.96 638.93 626.56 641.04 627.75 642.14C628.85 643.15 630.64 643.66 633.12 643.66C635.6 643.66 637.25 643.15 638.35 642.14C639.63 640.95 640.27 638.84 640.27 635.78V567.55H654.32V635.78C654.32 642.65 652.2 648.22 647.94 652.46C644.03 655.94 639.08 657.68 633.12 657.68H633.11Z" fill="black"/>
<path d="M707.92 657.68H699.66L677.951 611.96V657.68H663.73V567.55H671.99L693.701 613.13V567.55H707.92V657.68Z" fill="black"/>
<path d="M739.2 657.68H717.75V567.55H739.2C745.32 567.55 750.31 569.36 754.2 572.96C758.51 576.9 760.67 582.49 760.67 589.71V636.06C760.67 639.58 760.16 642.71 759.12 645.46C757.91 648.39 756.23 650.79 754.08 652.68C750.37 656.03 745.42 657.7 739.21 657.7L739.19 657.68H739.2ZM731.97 643.5H739.22C741.8 643.5 743.62 643.04 744.65 642.09C745.86 641.06 746.46 639.05 746.46 636.04V589.69C746.46 586.7 745.82 584.54 744.52 583.24C743.39 582.21 741.63 581.7 739.22 581.7H731.97V643.51V643.5Z" fill="black"/>
<path d="M799.28 643.37H783L780.42 657.65H765.95L784.04 567.52H798.26L816.35 657.65H801.88L799.3 643.37H799.28ZM796.82 629.22L791.14 596.91L785.46 629.22H796.84H796.82Z" fill="black"/>
<path d="M857.57 581.7H843.1V657.68H828.88V581.7H814.41V567.52H857.57V581.7Z" fill="black"/>
<path d="M878.111 657.68H863.891V567.55H878.111V657.68Z" fill="black"/>
<path d="M908.72 657.68C902.65 657.68 897.77 655.96 894.07 652.53C889.85 648.5 887.75 643 887.75 636.04V589.2C887.75 582.24 889.85 576.74 894.07 572.71C897.78 569.28 902.66 567.56 908.72 567.56C914.78 567.56 919.67 569.28 923.37 572.71C927.59 576.74 929.69 582.24 929.69 589.2V636.04C929.69 643.02 927.59 648.5 923.37 652.53C919.66 655.96 914.78 657.68 908.72 657.68ZM908.72 581.39C906.36 581.39 904.63 581.9 903.55 582.91C902.29 584.08 901.65 586.19 901.65 589.2V636.04C901.65 639.06 902.29 641.17 903.55 642.33C904.65 643.34 906.38 643.85 908.72 643.85C911.06 643.85 912.9 643.34 913.89 642.33C915.15 641.25 915.79 639.14 915.79 636.04V589.2C915.79 586.1 915.15 584.01 913.89 582.91C912.87 581.9 911.15 581.39 908.72 581.39Z" fill="black"/>
<path d="M983.029 657.68H974.769L953.059 611.96V657.68H938.859V567.55H947.119L968.829 613.13V567.55H983.049V657.68H983.029Z" fill="black"/>
<path d="M734.02 503.23H756.04V530.64C756.04 544.47 748.03 552.37 732.58 552.37C717.13 552.37 709.12 544.47 709.12 530.64V485.7C709.12 471.87 717.13 463.97 732.58 463.97C748.03 463.97 756.04 471.87 756.04 485.7V494.1H741.17V484.84C741.17 478.67 738.02 476.32 733.02 476.32C728.02 476.32 724.87 478.67 724.87 484.84V531.51C724.87 537.68 728.02 539.9 733.02 539.9C738.02 539.9 741.17 537.68 741.17 531.51V515.58H734.02V503.23Z" fill="black"/>
<path d="M781.93 464.95H766.2V551.38H781.93V464.95Z" fill="black"/>
<path d="M809.12 503.36H829.42V515.71H809.12V551.39H793.38V464.95H829.01V477.3H809.12V503.35V503.36Z" fill="black"/>
<path d="M838.01 464.95H880.65V477.3H867.2V551.39H851.46V477.3H838.01V464.95Z" fill="black"/>
<path d="M903.25 501.38H924.85V513.72H903.25V539.04H924.42V551.39H887.51V464.95H924.42V477.3H903.25V501.38Z" fill="black"/>
<path d="M934.15 464.95H959.04C974.77 464.95 982.5 472.49 982.5 486.32V530.03C982.5 543.86 974.78 551.4 959.04 551.4H934.15V464.96V464.95ZM949.89 477.31V539.04H958.75C963.76 539.04 966.76 536.82 966.76 530.65V485.7C966.76 479.53 963.76 477.3 958.75 477.3H949.89V477.31Z" fill="black"/>
</svg>
